<?xml version="1.0" encoding="UTF-8" standalone="no"?>
<!-- Created with Inkscape (http://www.inkscape.org/) -->

<svg
   xmlns:dc="http://purl.org/dc/elements/1.1/"
   xmlns:cc="http://creativecommons.org/ns#"
   xmlns:rdf="http://www.w3.org/1999/02/22-rdf-syntax-ns#"
   xmlns:svg="http://www.w3.org/2000/svg"
   xmlns="http://www.w3.org/2000/svg"
   xmlns:sodipodi="http://sodipodi.sourceforge.net/DTD/sodipodi-0.dtd"
   xmlns:inkscape="http://www.inkscape.org/namespaces/inkscape"
   width="600"
   height="600"
   id="svg2"
   version="1.1"
   inkscape:version="0.91 r13725"
   sodipodi:docname="bustle-symbolic.svg">
  <defs
     id="defs4" />
  <sodipodi:namedview
     id="base"
     pagecolor="#ffffff"
     bordercolor="#666666"
     borderopacity="1.0"
     inkscape:pageopacity="0.0"
     inkscape:pageshadow="2"
     inkscape:zoom="1.18"
     inkscape:cx="296.02826"
     inkscape:cy="407.83651"
     inkscape:document-units="px"
     inkscape:current-layer="layer1"
     showgrid="false"
     inkscape:window-width="1440"
     inkscape:window-height="824"
     inkscape:window-x="0"
     inkscape:window-y="27"
     inkscape:window-maximized="1"
     fit-margin-top="0"
     fit-margin-left="0"
     fit-margin-right="0"
     fit-margin-bottom="0"
     showguides="true"
     inkscape:guide-bbox="true">
    <inkscape:grid
       type="xygrid"
       id="grid3834"
       empspacing="5"
       visible="true"
       enabled="true"
       snapvisiblegridlinesonly="true"
       originx="-56.941089px"
       originy="-465.18127px" />
  </sodipodi:namedview>
  <metadata
     id="metadata7">
    <rdf:RDF>
      <cc:Work
         rdf:about="">
        <dc:format>image/svg+xml</dc:format>
        <dc:type
           rdf:resource="http://purl.org/dc/dcmitype/StillImage" />
        <dc:title></dc:title>
      </cc:Work>
    </rdf:RDF>
  </metadata>
  <g
     inkscape:label="Layer 1"
     inkscape:groupmode="layer"
     id="layer1"
     transform="translate(-56.941089,12.819102)">
    <path
       style="color:#000000;font-style:normal;font-variant:normal;font-weight:normal;font-stretch:normal;font-size:medium;line-height:normal;font-family:sans-serif;text-indent:0;text-align:start;text-decoration:none;text-decoration-line:none;text-decoration-style:solid;text-decoration-color:#000000;letter-spacing:normal;word-spacing:normal;text-transform:none;direction:ltr;block-progression:tb;writing-mode:lr-tb;baseline-shift:baseline;text-anchor:start;white-space:normal;clip-rule:nonzero;display:inline;overflow:visible;visibility:visible;opacity:1;isolation:auto;mix-blend-mode:normal;color-interpolation:sRGB;color-interpolation-filters:linearRGB;solid-color:#000000;solid-opacity:1;fill:#dedede;fill-opacity:1;fill-rule:nonzero;stroke:none;stroke-width:57.94400024;stroke-linecap:butt;stroke-linejoin:round;stroke-miterlimit:5.19999981;stroke-dasharray:115.88800049, 57.94400024;stroke-dashoffset:0;stroke-opacity:1;color-rendering:auto;image-rendering:auto;shape-rendering:auto;text-rendering:auto;enable-background:accumulate"
       d="m 349.58008,-12.728516 c -19.78034,0.499891 -39.51808,2.890348 -58.82031,7.2539096 4.10872,18.8723954 8.21745,37.7447914 12.32617,56.6171874 33.74925,-7.665785 69.12626,-7.971229 103.02539,-1.0293 3.71633,-18.821141 8.65912,-38.435398 11.61328,-56.7636714 -22.39128,-4.5980686 -45.29405,-6.6135646 -68.14453,-6.0781256 z m 105.80078,78.716797 c 31.47813,14.008295 59.87299,34.867319 82.70703,60.664059 14.44727,-12.81901 28.89453,-25.63802 43.3418,-38.457028 C 553.05494,56.141376 517.74279,30.253699 478.60547,12.900391 470.86393,30.596354 463.1224,48.292318 455.38086,65.988281 Z M 227.18164,16.626953 C 189.51961,34.723972 155.71119,60.77538 128.625,92.591797 c 14.7487,12.470703 29.49739,24.941413 44.24609,37.412113 22.37137,-26.20404 50.37565,-47.593699 81.60157,-62.169926 -8.17123,-17.501302 -16.34245,-35.002604 -24.51368,-52.503906 -0.92578,0.432292 -1.85156,0.864583 -2.77734,1.296875 z M 568.0293,168.66016 c 16.99699,30.09909 27.33124,63.91871 30.12695,98.36914 19.23893,-1.70833 38.47787,-3.41667 57.7168,-5.125 -3.5014,-42.55686 -16.29754,-84.32012 -37.26568,-121.51953 -16.85936,9.42513 -33.71871,18.85026 -50.57807,28.27539 z M 89.939453,150.27539 c -18.701268,36.38678 -29.811885,76.6502 -32.357428,117.48438 19.276042,1.22135 38.552083,2.44271 57.828125,3.66406 2.15345,-34.4883 11.88032,-68.47463 28.29492,-98.88281 -17.08268,-9.01302 -34.16536,-18.02605 -51.248045,-27.03907 -0.839191,1.59115 -1.678381,3.18229 -2.517572,4.77344 z"
       id="path4626"
       inkscape:connector-curvature="0" />
    <circle
       style="fill:none;stroke:#bebebe;stroke-width:75.08624021;stroke-miterlimit:5.19999981;stroke-dasharray:none;stroke-dashoffset:0;stroke-opacity:1"
       id="path2985-7"
       cx="381.42856"
       cy="433.79074"
       transform="matrix(0.50880116,0,0,0.55776489,164.13818,45.848517)"
       ry="118.57143"
       rx="130" />
    <path
       style="color:#000000;font-style:normal;font-variant:normal;font-weight:normal;font-stretch:normal;font-size:medium;line-height:normal;font-family:sans-serif;text-indent:0;text-align:start;text-decoration:none;text-decoration-line:none;text-decoration-style:solid;text-decoration-color:#000000;letter-spacing:normal;word-spacing:normal;text-transform:none;direction:ltr;block-progression:tb;writing-mode:lr-tb;baseline-shift:baseline;text-anchor:start;white-space:normal;clip-rule:nonzero;display:inline;overflow:visible;visibility:visible;opacity:1;isolation:auto;mix-blend-mode:normal;color-interpolation:sRGB;color-interpolation-filters:linearRGB;solid-color:#000000;solid-opacity:1;fill:#bebebe;fill-opacity:1;fill-rule:nonzero;stroke:none;stroke-width:60;stroke-linecap:butt;stroke-linejoin:miter;stroke-miterlimit:5.19999981;stroke-dasharray:none;stroke-dashoffset:0;stroke-opacity:1;color-rendering:auto;image-rendering:auto;shape-rendering:auto;text-rendering:auto;enable-background:accumulate"
       d="m 430,220 30,55 -85,0 0,50 85,0 -30,55 170,-80 z"
       transform="translate(56.941089,-12.819102)"
       id="path3757-7"
       inkscape:connector-curvature="0"
       sodipodi:nodetypes="cccccccc" />
    <path
       style="color:#000000;font-style:normal;font-variant:normal;font-weight:normal;font-stretch:normal;font-size:medium;line-height:normal;font-family:sans-serif;text-indent:0;text-align:start;text-decoration:none;text-decoration-line:none;text-decoration-style:solid;text-decoration-color:#000000;letter-spacing:normal;word-spacing:normal;text-transform:none;direction:ltr;block-progression:tb;writing-mode:lr-tb;baseline-shift:baseline;text-anchor:start;white-space:normal;clip-rule:nonzero;display:inline;overflow:visible;visibility:visible;opacity:1;isolation:auto;mix-blend-mode:normal;color-interpolation:sRGB;color-interpolation-filters:linearRGB;solid-color:#000000;solid-opacity:1;fill:#bebebe;fill-opacity:1;fill-rule:nonzero;stroke:none;stroke-width:60;stroke-linecap:butt;stroke-linejoin:miter;stroke-miterlimit:5.19999981;stroke-dasharray:none;stroke-dashoffset:0;stroke-opacity:1;color-rendering:auto;image-rendering:auto;shape-rendering:auto;text-rendering:auto;enable-background:accumulate"
       d="m 170,220 -170,80 170,80 -30,-55 85,0 0,-50 -85,0 z"
       transform="translate(56.941089,-12.819102)"
       id="path3761-7"
       inkscape:connector-curvature="0"
       sodipodi:nodetypes="cccccccc" />
    <path
       style="color:#000000;font-style:normal;font-variant:normal;font-weight:normal;font-stretch:normal;font-size:medium;line-height:normal;font-family:sans-serif;text-indent:0;text-align:start;text-decoration:none;text-decoration-line:none;text-decoration-style:solid;text-decoration-color:#000000;letter-spacing:normal;word-spacing:normal;text-transform:none;direction:ltr;block-progression:tb;writing-mode:lr-tb;baseline-shift:baseline;text-anchor:start;white-space:normal;clip-rule:nonzero;display:inline;overflow:visible;visibility:visible;opacity:1;isolation:auto;mix-blend-mode:normal;color-interpolation:sRGB;color-interpolation-filters:linearRGB;solid-color:#000000;solid-opacity:1;fill:#bebebe;fill-opacity:1;fill-rule:nonzero;stroke:none;stroke-width:34.40008163;stroke-linecap:butt;stroke-linejoin:round;stroke-miterlimit:5.19999981;stroke-dasharray:none;stroke-dashoffset:94.40000153;stroke-opacity:1;color-rendering:auto;image-rendering:auto;shape-rendering:auto;text-rendering:auto;enable-background:accumulate"
       d="m 356.94141,187.18164 c -55.02475,0 -100.00001,44.97526 -100,100 -1e-5,55.02475 44.97525,100 100,100 55.02475,0 100,-44.97525 100,-100 0,-55.02475 -44.97525,-100 -100,-100 z m 0,34.39844 c 36.43357,0 65.59961,29.168 65.59961,65.60156 0,36.43356 -29.16604,65.59961 -65.59961,65.59961 -36.43357,0 -65.59961,-29.16605 -65.59961,-65.59961 0,-36.43356 29.16604,-65.60156 65.59961,-65.60156 z"
       id="path4619"
       inkscape:connector-curvature="0" />
  </g>
</svg>
